<?xml version="1.0" encoding="utf-8"?>
<!-- Generator: Adobe Illustrator 16.0.0, SVG Export Plug-In . SVG Version: 6.00 Build 0)  -->
<!DOCTYPE svg PUBLIC "-//W3C//DTD SVG 1.1//EN" "http://www.w3.org/Graphics/SVG/1.1/DTD/svg11.dtd">
<svg version="1.1" id="Layer_1" xmlns="http://www.w3.org/2000/svg" xmlns:xlink="http://www.w3.org/1999/xlink" x="0px" y="0px"
	 width="192px" height="192px" viewBox="0 0 192 192" enable-background="new 0 0 192 192" xml:space="preserve">
<g>
	<rect fill="#ECEFF1" width="192" height="192"/>
	<rect x="52" y="72" fill="#374850" width="88" height="120"/>
	<path fill="#1DE9B6" d="M156,192v-14c0-27.615-22.386-50-50-50H86c-27.614,0-50,22.385-50,50v14H156z"/>
	<path opacity="0.15" fill="#263238" d="M106,128H90c27.614,0,50,22.385,50,50v14h16v-14C156,150.385,133.614,128,106,128z"/>
	<path fill="#D1A58F" d="M107.91,136c0,6.627-5.373,12-12,12l0,0c-6.627,0-12-5.373-12-12v-20c0-6.627,5.373-12,12-12l0,0
		c6.627,0,12,5.373,12,12V136z"/>
	<circle fill="#D1A58F" cx="52" cy="88" r="8"/>
	<circle fill="#D1A58F" cx="140" cy="88" r="8"/>
	<path fill="#E2B69E" d="M140,84c0,24.301-19.699,44-44,44l0,0c-24.301,0-44-19.699-44-44v-8c0-24.301,19.699-44,44-44l0,0
		c24.301,0,44,19.699,44,44V84z"/>
	<path fill="#374850" d="M107.041,33.408c-0.086-0.021-0.173-0.041-0.259-0.064c-0.352-0.088-0.701-0.182-1.056-0.26
		c-0.002,0.004-0.003,0.01-0.005,0.016c-3.116-0.705-6.355-1.092-9.685-1.098V32c-0.013,0-0.024,0.002-0.037,0.002
		S95.976,32,95.963,32v0.002c-3.329,0.006-6.568,0.393-9.685,1.098c-0.002-0.006-0.003-0.012-0.005-0.016
		c-0.354,0.078-0.704,0.172-1.056,0.26c-0.086,0.023-0.173,0.043-0.259,0.064C65.987,38.297,51.963,55.502,51.963,76v3.998
		c0.024,0,0.049-0.002,0.073-0.002V80h0.188c0-0.002,0-0.006,0.001-0.008c5.71-0.041,11.101-1.414,15.884-3.82v3.826
		c11.249,0,21.289-5.16,27.891-13.242c6.602,8.082,16.642,13.242,27.891,13.242v-3.826c4.783,2.406,10.174,3.779,15.884,3.82
		c0.001,0.002,0.001,0.006,0.001,0.008h0.188v-0.004c0.024,0,0.049,0.002,0.073,0.002V76
		C140.037,55.502,126.013,38.297,107.041,33.408z"/>
	<path opacity="0.15" fill="#263238" d="M96,32c-2.733,0-5.404,0.262-8,0.738c20.479,3.764,36,21.695,36,43.262v8
		c0,21.566-15.521,39.496-36,43.26c2.596,0.479,5.267,0.74,8,0.74c24.301,0,44-19.699,44-44v-8C140,51.699,120.301,32,96,32z"/>
</g>
</svg>
